{"title":"Disney Flight Of The Navigator 1986 DvDrip XviD AC3 greenbud1969","uid":11833610,"size":1503921834,"categoryP":"video","categoryS":"movies","magnet":"?xt=urn:btih:1658291683dd228654ccc0fcfb8fd9e7c17c8a70&amp;dn=Disney+Flight+Of+The+Navigator+1986+DvDrip+XviD+AC3+greenbud1969&amp;tr=udp%3A%2F%2Ftracker.openbittorrent.com%3A80&amp;tr=udp%3A%2F%2Fopen.demonii.com%3A1337&amp;tr=udp%3A%2F%2Ftracker.coppersurfer.tk%3A6969&amp;tr=udp%3A%2F%2Fexodus.desync.com%3A6969","seeders":1,"leechers":2,"uploader":"greenbud1969","files":4,"time":1429675555,"description":"General\nComplete name                            : Disney Flight Of The Navigator 1986 DvDrip XviD AC3 greenbud1969\nFormat                                   : AVI\nFormat/Info                              : Audio Video Interleave\nFile size                                : 1.37 GiB\nDuration                                 : 1h 29mn\nOverall bit rate                         : 2 187 Kbps\nWriting application                      : VirtualDubMod 1.5.4.1 (build 2178/release)\nWriting library                          : VirtualDubMod build 2178/release\n\nVideo\nID                                       : 0\nFormat                                   : MPEG-4 Visual\nFormat profile                           : Advanced Simple@L5\nFormat settings, BVOP                    : 1\nFormat settings, QPel                    : No\nFormat settings, GMC                     : No warppoints\nFormat settings, Matrix                  : Custom\nCodec ID                                 : XVID\nCodec ID/Hint                            : XviD\nDuration                                 : 1h 29mn\nBit rate                                 : 1 988 Kbps\nWidth                                    : 720 pixels\nHeight                                   : 400 pixels\nDisplay aspect ratio                     : 16:9\nFrame rate                               : 23.976 fps\nColor space                              : YUV\nChroma subsampling                       : 4:2:0\nBit depth                                : 8 bits\nScan type                                : Progressive\nCompression mode                         : Lossy\nBits/(Pixel*Frame)                       : 0.288\nStream size                              : 1.24 GiB (91%)\nWriting library                          : XviD 1.2.1 (UTC 2008-12-04)\n\nAudio\nID                                       : 1\nFormat                                   : AC-3\nFormat/Info                              : Audio Coding 3\nFormat profile                           : Dolby Digital\nMode extension                           : CM (complete main)\nFormat settings, Endianness              : Big\nCodec ID                                 : 2000\nDuration                                 : 1h 29mn\nBit rate mode                            : Constant\nBit rate                                 : 192 Kbps\nChannel(s)                               : 2 channels\nChannel positions                        : Front: L R\nSampling rate                            : 48.0 KHz\nBit depth                                : 16 bits\nCompression mode                         : Lossy\nStream size                              : 123 MiB (9%)\nAlignment                                : Split accross interleaves\nInterleave, duration                     : 96 ms (2.30 video frames)\nInterleave, preload duration             : 96 ms\nLanguage                                 : English\n\n\nIMDb Link:  &lt;a href=&quot; http://www.imdb.com/title/tt0091059/&quot; rel=&quot;nofollow&quot; target=&quot;_NEW&quot;&gt; http://www.imdb.com/title/tt0091059/&lt;/a&gt;\n\nDavid Freeman (Joey Cramer) is an ordinary boy destined for a most extraordinary adventure - aboard a spectacular, futuristic spacecraft. After a mystifying disappearance, David returns - possessing a vast, undiscovered knowledge about the farthest reaches of the universe. With these sudden navigational powers, David is able to take the fantastic flying machine anywhere he desires, accompanied by both its wisecracking robotic commander, Max, and an assortment of bizarre extraterrestrial creatures! Embark on a fun-filled, fast-paced journey of fantasy and adventure as David takes off on the flight of a lifetime! Also featuring Sarah Jessica Parker and the voice of Paul Reubens.\n\n\nNotes\n\nIf your want to convert this movie or any of my other releases I recommend using ConvertXtoDVD or you can burn as a data disc with any programs such as CyberLink Power2Go, Roxio or Nero \n\n\nAll stand-alone divx players compatible\n\n\nSample and Optional English .srt Included\n\n\nScreenshots &amp; Thumbnail\n\n    &lt;a href=&quot;\nhttp://lookpic.com/O/i2/846/JxqnfgIu.jpeg&quot; rel=&quot;nofollow&quot; target=&quot;_NEW&quot;&gt;\nhttp://lookpic.com/O/i2/846/JxqnfgIu.jpeg&lt;/a&gt;\n &lt;a href=&quot;\nhttp://lookpic.com/O/i2/961/DQoVokoG.jpeg&quot; rel=&quot;nofollow&quot; target=&quot;_NEW&quot;&gt;\nhttp://lookpic.com/O/i2/961/DQoVokoG.jpeg&lt;/a&gt;\n &lt;a href=&quot;\nhttp://lookpic.com/O/i2/1994/RAVPKfwa.jpeg&quot; rel=&quot;nofollow&quot; target=&quot;_NEW&quot;&gt;\nhttp://lookpic.com/O/i2/1994/RAVPKfwa.jpeg&lt;/a&gt;\n &lt;a href=&quot;\nhttp://lookpic.com/O/i2/1615/ilXRuyc0.jpeg&quot; rel=&quot;nofollow&quot; target=&quot;_NEW&quot;&gt;\nhttp://lookpic.com/O/i2/1615/ilXRuyc0.jpeg&lt;/a&gt;\n &lt;a href=&quot;\nhttp://lookpic.com/O/i2/1646/fdPVOj2W.jpeg&quot; rel=&quot;nofollow&quot; target=&quot;_NEW&quot;&gt;\nhttp://lookpic.com/O/i2/1646/fdPVOj2W.jpeg&lt;/a&gt;\n &lt;a href=&quot;\nhttp://lookpic.com/O/i2/1849/wruX0Rdc.jpeg&quot; rel=&quot;nofollow&quot; target=&quot;_NEW&quot;&gt;\nhttp://lookpic.com/O/i2/1849/wruX0Rdc.jpeg&lt;/a&gt;\n &lt;a href=&quot;\nhttp://lookpic.com/O/i2/857/cFHlGbbz.jpeg&quot; rel=&quot;nofollow&quot; target=&quot;_NEW&quot;&gt;\nhttp://lookpic.com/O/i2/857/cFHlGbbz.jpeg&lt;/a&gt;\n\n\nGREETZ\n\n\nBlackjesus, Hive-CM8, ViP3R, THC, SANTi, CRYS, AQOS, EVO, playXD, SuperNova, MiLLENiUM, MAJESTiC, FUM, AFG and respect to all pirate groups and encoders past and present. Sharing is caring.\n\n\nALSO IF YOU HAVE ANY REQUESTS DON'T HESITATE TO ASK. I MIGHT HAVE WHAT YOUR LOOKING FOR. YOU NEVER KNOW. IT NEVER HURTS TO ASK. EMAIL ME AT greenbud1969 AT hotmail dot com OR LEAVE REQUESTS IN COMMENTS","torrent":{"xt":"urn:btih:1658291683dd228654ccc0fcfb8fd9e7c17c8a70","amp;dn":"Disney+Flight+Of+The+Navigator+1986+DvDrip+XviD+AC3+greenbud1969","amp;tr":["udp%3A%2F%2Ftracker.openbittorrent.com%3A80","udp%3A%2F%2Fopen.demonii.com%3A1337","udp%3A%2F%2Ftracker.coppersurfer.tk%3A6969","udp%3A%2F%2Fexodus.desync.com%3A6969"],"infoHash":"1658291683dd228654ccc0fcfb8fd9e7c17c8a70","infoHashBuffer":{"type":"Buffer","data":[22,88,41,22,131,221,34,134,84,204,192,252,251,143,217,231,193,124,138,112]},"announce":[],"urlList":[]}}